<svg xmlns="http://www.w3.org/2000/svg" width="175.247" height="159.5" viewBox="0 0 175.247 159.5"><defs><style>.a{fill:#1e1b18}</style></defs><path class="a" d="M0 79.75v79.75h175.247V0H0zm118.409-45.085l3.68 3.3v50.508l-3.33 3.084-3.33 3.084H59.934l-3.68-3.3-3.68-3.3V38.064l3.622-3.349 3.622-3.349h54.911zM31.544 106.44l.058 3.881 1.869-2.02a5.6 5.6 0 0 1 3.213-1.967c1.752 0 1.636.585-.467 2.393l-1.752 1.542 1.11 1.648c.584.957 1.519 2.339 2.1 3.084l.993 1.436h-1.691c-1.4 0-1.986-.425-3.038-2.127-1.519-2.446-2.4-2.339-2.4.319 0 1.648-.117 1.808-1.752 1.808H28.04V109.9c0-3.615.175-6.752.409-6.912a3.158 3.158 0 0 1 1.752-.372c1.285-.004 1.343.155 1.343 3.824zm18.693-2.765c0 .8-.409 1.063-1.46 1.063s-1.46-.266-1.46-1.063.409-1.063 1.46-1.063 1.46.266 1.46 1.063zm76.525 1.276c0 1.117.35 1.329 1.869 1.489 1.285.106 1.986.478 2.1 1.063.175.8-.234.957-1.928.957h-2.1l.175 3.03c.175 3.031.175 3.084 2.1 3.243 1.052.106 1.869.479 1.869.9 0 1.436-3.68 1.808-5.725.479-1.11-.691-1.285-1.276-1.285-4.253 0-2.658-.175-3.4-.876-3.4a1 1 0 0 1-.876-1.063 1 1 0 0 1 .876-1.063c.526 0 1.168-.585 1.46-1.329.705-1.754 2.341-1.754 2.341-.053zm-76.525 5.636v4.253h2.045c1.4 0 2.045.266 2.045.8 0 .638-.993.8-5.549.8s-5.549-.16-5.549-.8c0-.532.643-.8 2.045-.8h2.045v-3.19c0-3.031-.058-3.19-1.46-3.19-1.051 0-1.46-.266-1.46-1.063 0-.9.409-1.063 2.921-1.063h2.921zm11.683-3.456c0 .638.234.638 1.636-.106 3.8-1.967 5.958.372 5.958 6.274 0 3.137 0 3.137-1.752 3.137H66.01v-3.722c0-2.871-.234-3.828-.876-4.041-1.752-.638-2.629.8-2.629 4.36v3.4H59v-5.051c0-5.051 0-5.051 1.46-5.051.876.002 1.461.321 1.461.8zm18.693-.266c.759.372 1.227.372 1.46 0a2.152 2.152 0 0 1 1.519-.532c1.051 0 1.11.425 1.11 6.114 0 5.583-.117 6.167-1.285 7.178-1.752 1.489-5.725 1.489-7.244-.053-.935-.9-.935-1.17-.234-1.542 1.285-.744 1.811-.638 2.687.372 1.051 1.329 2.8.319 3.038-1.754.175-1.223.058-1.436-.526-.9a4.86 4.86 0 0 1-2.629.691c-2.512 0-3.739-1.6-3.739-4.838.002-4.045 2.748-6.278 5.844-4.736zm12.851.372c0 .8.058.8 1.051 0 3.563-2.924 7.769 1.861 5.958 6.805-.935 2.5-3.1 3.4-5.374 2.18l-1.636-.8v2.605c0 2.5-.117 2.658-1.46 2.658h-1.46V106.33H92c1 .003 1.465.322 1.465.907zm21.322.425a3.99 3.99 0 0 1 1.46 2.924v1.6h-3.563c-3.33 0-3.5.053-3.33 1.17.175 1.382 2.512 1.967 3.563 1.01.759-.691 3.33-.8 3.33-.16 0 1.223-2.57 2.5-5.082 2.5-3.388 0-5.433-1.914-5.433-5.1.001-4.528 5.726-6.974 9.056-3.943zm30.9-.16a5.816 5.816 0 0 1 1.869 2.924l.409 1.755h-3.914c-3.33 0-3.914.159-3.739.851a2.246 2.246 0 0 0 3.388 1.382c1.285-.744 3.5-.851 3.5-.213 0 .851-2.1 2.233-3.914 2.552a5.251 5.251 0 0 1-6.017-6.965 5.335 5.335 0 0 1 8.421-2.288z"/><path class="a" d="M64.108 63.002v18.874h46.468V44.128H64.108z"/><path class="a" d="M78.123 109.471a3.887 3.887 0 0 0 .262 4.626c2.029 2.127 4.45-1.01 3.4-4.36a2.06 2.06 0 0 0-3.662-.266z"/><path class="a" d="M93.783 109.897c-.982 2.074 0 4.626 1.833 4.838 1.7.213 2.356-1.276 2.029-4.2-.131-1.382-.524-1.861-1.636-1.967a1.862 1.862 0 0 0-2.226 1.329z"/><path class="a" d="M109.709 108.567c-1.309 1.063-.916 1.489 1.505 1.489 2.552 0 3.011-.744 1.047-1.6-1.571-.687-1.571-.687-2.552.111z"/></svg>